<svg xmlns="http://www.w3.org/2000/svg" width="48" height="48" class="icon" p-id="1440" t="1645261422781" version="1.1" viewBox="0 0 1024 1024"><path fill="#fff" d="M900.032 646.016h-56.064V502.976a16 16 0 0 0-16-16H544v-96h62.976c22.144 0 40-17.92 40-40V161.024a40 40 0 0 0-40-40H417.024a40 40 0 0 0-40 40v189.952c0 22.144 17.92 40 40 40H480v96H195.968a16 16 0 0 0-16 16v143.04h-55.936a38.016 38.016 0 0 0-38.016 38.016v176c0 20.928 17.024 37.952 37.952 37.952h176a38.016 38.016 0 0 0 38.016-38.016v-176a38.016 38.016 0 0 0-37.952-37.952h-56V550.976H480v95.04h-56a38.016 38.016 0 0 0-38.016 38.016v176c0 20.928 17.024 37.952 38.016 37.952h176a38.016 38.016 0 0 0 38.016-38.016v-176a38.016 38.016 0 0 0-38.016-37.952H544V550.976h236.032v95.04h-56.064a38.016 38.016 0 0 0-37.952 38.016v176c0 20.928 17.024 37.952 38.016 37.952h176a38.016 38.016 0 0 0 37.952-38.016v-176a38.016 38.016 0 0 0-38.016-37.952zM440.96 184.96h141.952v141.952H441.024V185.024zM278.016 838.016H145.92V705.92h132.032v132.032z m299.968 0H446.08V705.92H577.92v132.032z m300.032 0h-132.032V705.92h132.032v132.032z" p-id="1441"/></svg>