<svg xmlns="http://www.w3.org/2000/svg" width="48" height="48" class="icon" p-id="3055" t="1650287922642" version="1.1" viewBox="0 0 1024 1024"><path fill="#707070" d="M277.333333 325.333333m5.333334 0l325.333333 0q5.333333 0 5.333333 5.333334l0 64q0 5.333333-5.333333 5.333333l-325.333333 0q-5.333333 0-5.333334-5.333333l0-64q0-5.333333 5.333334-5.333334Z" p-id="3056"/><path fill="#707070" d="M277.333333 474.666667m5.333334 0l325.333333 0q5.333333 0 5.333333 5.333333l0 64q0 5.333333-5.333333 5.333333l-325.333333 0q-5.333333 0-5.333334-5.333333l0-64q0-5.333333 5.333334-5.333333Z" p-id="3057"/><path fill="#707070" d="M277.333333 624m5.333334 0l247.36 0q5.333333 0 5.333333 5.333333l0 64q0 5.333333-5.333333 5.333334l-247.36 0q-5.333333 0-5.333334-5.333334l0-64q0-5.333333 5.333334-5.333333Z" p-id="3058"/><path fill="#707070" d="M565.333333 842.666667H186.666667a5.333333 5.333333 0 0 1-5.333334-5.333334V186.666667a5.333333 5.333333 0 0 1 5.333334-5.333334h522.666666v346.24a5.333333 5.333333 0 0 0 5.333334 5.333334h64a5.333333 5.333333 0 0 0 5.333333-5.333334V106.666667H112a5.333333 5.333333 0 0 0-5.333333 5.333333v800a5.333333 5.333333 0 0 0 5.333333 5.333333h453.333333a5.333333 5.333333 0 0 0 5.333334-5.333333v-64a5.333333 5.333333 0 0 0-5.333334-5.333333z" p-id="3059"/><path fill="#707070" d="M868.426667 723.786667a144.64 144.64 0 1 0-144.64 144.64 144.64 144.64 0 0 0 144.64-144.64z m-144.64 69.973333a69.973333 69.973333 0 1 1 69.973333-69.973333 70.026667 70.026667 0 0 1-69.973333 69.973333z" p-id="3060"/><path fill="#707070" d="M811.758007 864.533065m3.771237-3.771236l45.254834-45.254834q3.771236-3.771236 7.542472 0l45.254834 45.254834q3.771236 3.771236 0 7.542472l-45.254834 45.254834q-3.771236 3.771236-7.542472 0l-45.254834-45.254834q-3.771236-3.771236 0-7.542472Z" p-id="3061"/></svg>